<svg xmlns="http://www.w3.org/2000/svg" viewBox="0 0 64 64" role="img" aria-label="Crackaro">
  <defs>
    <linearGradient id="bg" x1="8" y1="8" x2="56" y2="56" gradientUnits="userSpaceOnUse">
      <stop stop-color="#be123c"/>
      <stop offset="0.55" stop-color="#c2410c"/>
      <stop offset="1" stop-color="#eab308"/>
    </linearGradient>
  </defs>
  <rect width="64" height="64" rx="14" fill="url(#bg)"/>
  <g fill="#fff" transform="translate(32 32)">
    <circle r="4.2"/>
    <g stroke="#fff" stroke-width="3" stroke-linecap="round">
      <line x1="0" y1="-18" x2="0" y2="-10"/>
      <line x1="0" y1="10" x2="0" y2="18"/>
      <line x1="-18" y1="0" x2="-10" y2="0"/>
      <line x1="10" y1="0" x2="18" y2="0"/>
      <line x1="-12.7" y1="-12.7" x2="-7.1" y2="-7.1"/>
      <line x1="7.1" y1="7.1" x2="12.7" y2="12.7"/>
      <line x1="12.7" y1="-12.7" x2="7.1" y2="-7.1"/>
      <line x1="-7.1" y1="7.1" x2="-12.7" y2="12.7"/>
    </g>
    <circle cx="0" cy="-22" r="2.2"/>
    <circle cx="15.6" cy="-15.6" r="2"/>
    <circle cx="22" cy="0" r="2.2"/>
    <circle cx="15.6" cy="15.6" r="2"/>
    <circle cx="0" cy="22" r="2.2"/>
    <circle cx="-15.6" cy="15.6" r="2"/>
    <circle cx="-22" cy="0" r="2.2"/>
    <circle cx="-15.6" cy="-15.6" r="2"/>
  </g>
</svg>
